HIERARCHY
ROOT Hips
{
 OFFSET 0.000000 0.000000 0.000000
 CHANNELS 6 Xposition Yposition Zposition Yrotation Xrotation Zrotation
 JOINT Chest
 {
  OFFSET 0.000000 9.585900 0.002600
  CHANNELS 3 Yrotation Xrotation Zrotation
  JOINT Chest2
  {
   OFFSET 0.000000 9.601200 -0.005300
   CHANNELS 3 Yrotation Xrotation Zrotation
   JOINT Chest3
   {
    OFFSET 0.000000 9.561800 0.000000
    CHANNELS 3 Yrotation Xrotation Zrotation
    JOINT Chest4
    {
     OFFSET 0.000000 9.552100 0.000000
     CHANNELS 3 Yrotation Xrotation Zrotation
     JOINT Neck
     {
      OFFSET 0.000000 14.453000 0.000000
      CHANNELS 3 Yrotation Xrotation Zrotation
      JOINT Head
      {
       OFFSET 0.000000 8.936500 -0.011300
       CHANNELS 3 Yrotation Xrotation Zrotation
       End Site
       {
        OFFSET 0.000000 17.073600 -0.006000
       }
      }
     }
     JOINT RightCollar
     {
      OFFSET -2.921100 9.558500 0.000000
      CHANNELS 3 Yrotation Xrotation Zrotation
      JOINT RightShoulder
      {
       OFFSET -13.519700 0.000000 0.000000
       CHANNELS 3 Yrotation Xrotation Zrotation
       JOINT RightElbow
       {
        OFFSET 0.000000 -29.696600 0.000000
        CHANNELS 3 Yrotation Xrotation Zrotation
        JOINT RightWrist
        {
         OFFSET 0.000000 -24.004700 0.000000
         CHANNELS 3 Yrotation Xrotation Zrotation
         End Site
         {
          OFFSET 0.000000 -17.728500 0.000000
         }
        }
       }
      }
     }
     JOINT LeftCollar
     {
      OFFSET 2.921100 9.558500 0.000000
      CHANNELS 3 Yrotation Xrotation Zrotation
      JOINT LeftShoulder
      {
       OFFSET 13.519700 0.000000 0.000000
       CHANNELS 3 Yrotation Xrotation Zrotation
       JOINT LeftElbow
       {
        OFFSET 0.000000 -29.696600 0.000000
        CHANNELS 3 Yrotation Xrotation Zrotation
        JOINT LeftWrist
        {
         OFFSET 0.000000 -24.004700 0.000000
         CHANNELS 3 Yrotation Xrotation Zrotation
         End Site
         {
          OFFSET 0.000000 -17.728500 0.000000
         }
        }
       }
      }
     }
    }
   }
  }
 }
 JOINT RightHip
 {
  OFFSET -7.771700 -0.012900 -0.001300
  CHANNELS 3 Yrotation Xrotation Zrotation
  JOINT RightKnee
  {
   OFFSET 0.000000 -40.869800 0.001200
   CHANNELS 3 Yrotation Xrotation Zrotation
   JOINT RightAnkle
   {
    OFFSET 0.000000 -39.717900 0.002100
    CHANNELS 3 Yrotation Xrotation Zrotation
    JOINT RightToe
    {
     OFFSET 0.000000 -4.965400 11.033500
     CHANNELS 3 Yrotation Xrotation Zrotation
     End Site
     {
      OFFSET 0.000000 -1.423100 5.872300
     }
    }
   }
  }
 }
 JOINT LeftHip
 {
  OFFSET 7.771700 -0.012900 -0.001300
  CHANNELS 3 Yrotation Xrotation Zrotation
  JOINT LeftKnee
  {
   OFFSET 0.000000 -40.869800 0.001200
   CHANNELS 3 Yrotation Xrotation Zrotation
   JOINT LeftAnkle
   {
    OFFSET 0.000000 -39.717900 0.002100
    CHANNELS 3 Yrotation Xrotation Zrotation
    JOINT LeftToe
    {
     OFFSET 0.000000 -4.965400 11.033500
     CHANNELS 3 Yrotation Xrotation Zrotation
     End Site
     {
      OFFSET 0.000000 -1.423100 5.872300
     }
    }
   }
  }
 }
}
MOTION
Frames: 13
Frame Time: 0.008333
-11.568210 52.164122 34.074468 -177.565416 -33.868438 -10.779094 -0.848252 13.212128 3.595391 -0.583103 7.590191 2.020041 -0.668444 9.480325 2.513942 -0.574186 7.585572 2.018457 4.753398 20.387513 0.781662 4.931120 -3.982947 -0.256347 0.879844 1.580722 -1.626050 -14.046495 -8.723887 7.400783 40.690332 -74.083724 -27.141285 11.335466 -3.024908 -9.662900 -9.697223 3.486019 -3.544547 7.456944 -1.734014 -1.801948 -89.704087 -70.525682 96.976031 11.096112 -10.826650 -8.757223 -23.472377 -36.010709 16.785234 7.481043 70.978944 3.286504 -2.565781 2.401953 -2.690027 -0.041471 1.519974 -0.902540 -14.268563 -45.063523 12.150700 175.367677 78.734688 170.623075 -1.732489 -18.532023 2.249164 0.008814 -0.161413 -0.022965
-11.570818 52.084436 34.032919 -177.558232 -33.859677 -10.745031 -0.846527 13.203690 3.561436 -0.591692 7.585405 2.017615 -0.659277 9.462325 2.506608 -0.573695 7.575336 2.014612 4.761720 20.396575 0.780469 4.940636 -3.971936 -0.259543 0.877119 1.589635 -1.628250 -14.068126 -8.735368 7.385917 40.599527 -74.095516 -27.027472 11.372002 -3.039100 -9.589126 -9.670857 3.473919 -3.544387 7.419943 -1.689323 -1.781854 -89.685868 -70.509036 97.067674 11.131960 -10.833458 -8.855146 -23.312836 -35.998302 16.612499 7.608831 71.248767 3.342883 -2.362363 1.196084 -2.262629 -0.052891 1.917379 -0.904223 -14.279163 -45.147741 12.097490 175.440451 78.594014 170.704215 -1.704108 -18.614055 2.235701 0.010198 -0.144384 -0.028616
-11.571371 52.005594 33.991460 -177.563144 -33.863670 -10.714632 -0.831492 13.208055 3.538179 -0.590724 7.572184 2.013003 -0.655644 9.449284 2.503026 -0.571659 7.563648 2.011037 4.772502 20.398465 0.774071 4.949724 -3.960908 -0.261919 0.869367 1.600640 -1.629266 -14.080504 -8.742050 7.369546 40.508380 -74.110036 -26.924876 11.391558 -3.044753 -9.504683 -9.676740 3.487300 -3.536561 7.422165 -1.668337 -1.785090 -89.698155 -70.492908 97.119547 11.147787 -10.845311 -8.897461 -23.129213 -35.962403 16.424507 7.797007 71.538381 3.447851 -2.165990 -0.054397 -1.808824 -0.065388 2.240365 -0.911308 -14.321272 -45.210680 12.053538 175.573379 78.457342 170.843840 -1.632729 -18.700956 2.188393 0.013220 -0.125199 -0.031664
-11.572866 51.925445 33.955351 -177.559348 -33.844064 -10.681159 -0.835108 13.191165 3.505970 -0.582133 7.560400 2.009430 -0.654143 9.433784 2.499379 -0.568006 7.551941 2.007413 4.776428 20.402867 0.773903 4.948298 -3.950350 -0.254819 0.862267 1.615538 -1.630459 -14.085321 -8.749297 7.351595 40.433876 -74.148129 -26.843111 11.414341 -3.021009 -9.409887 -9.683046 3.499786 -3.532099 7.434324 -1.652753 -1.791769 -89.715504 -70.474184 97.158851 11.158516 -10.876880 -8.958226 -22.943256 -35.955074 16.222357 8.088670 71.852487 3.632772 -2.002298 -1.272973 -1.304441 -0.076163 2.450363 -0.932885 -14.363509 -45.298994 12.025828 175.715132 78.329483 170.975835 -1.590573 -18.777676 2.169214 0.013152 -0.105399 -0.033262
-11.573584 51.847175 33.922940 -177.565632 -33.822646 -10.645669 -0.837961 13.169549 3.474778 -0.568401 7.551211 2.007556 -0.660746 9.429350 2.498792 -0.553418 7.530965 1.998824 4.778451 20.405193 0.773581 4.950673 -3.947565 -0.255668 0.880107 1.610733 -1.638478 -14.107498 -8.735663 7.338894 40.412834 -74.215295 -26.820640 11.444364 -2.949221 -9.301748 -9.690821 3.515628 -3.528673 7.422466 -1.636966 -1.782301 -89.724534 -70.472618 97.186961 11.156917 -10.895784 -8.991443 -22.728839 -35.960892 16.008408 8.481394 72.185631 3.903420 -1.886133 -2.396799 -0.761666 -0.081718 2.527067 -0.956286 -14.394171 -45.386410 12.013838 175.830209 78.208854 171.075225 -1.571894 -18.848031 2.164860 0.010744 -0.084496 -0.030625
-11.573159 51.773071 33.892943 -177.581165 -33.813614 -10.611378 -0.826134 13.154097 3.452167 -0.549909 7.532353 2.005114 -0.676946 9.438384 2.498078 -0.543719 7.520530 1.994946 4.773921 20.412324 0.777864 4.966975 -3.963941 -0.278290 0.867657 1.627370 -1.629740 -14.081056 -8.780918 7.296682 40.200130 -74.233924 -26.633463 11.481943 -2.910554 -9.183146 -9.703190 3.533114 -3.523759 7.441706 -1.638248 -1.787805 -89.735227 -70.466703 97.202788 11.139372 -10.889436 -9.117865 -22.464278 -35.971737 15.769057 8.924730 72.535960 4.233261 -1.818067 -3.387139 -0.221248 -0.079768 2.469056 -0.953034 -14.418778 -45.455069 12.010378 175.960202 78.097963 171.186643 -1.552032 -18.913997 2.159563 0.012547 -0.071335 -0.033350
-11.573393 51.701718 33.868472 -177.612596 -33.797803 -10.563052 -0.796697 13.131007 3.436349 -0.549440 7.527135 1.997092 -0.673767 9.424076 2.490241 -0.556177 7.533080 2.000405 4.778714 20.405673 0.772933 4.966488 -3.963943 -0.278340 0.888207 1.616259 -1.636706 -14.097779 -8.786458 7.282938 40.092921 -74.241305 -26.532693 11.517213 -2.879110 -9.065698 -9.689075 3.516201 -3.530564 7.452156 -1.629982 -1.782743 -89.742287 -70.466038 97.209472 11.122428 -10.853709 -9.223707 -22.135361 -36.019340 15.496790 9.378225 72.905986 4.596925 -1.795791 -4.221203 0.267298 -0.070023 2.289667 -0.890928 -14.425787 -45.529415 11.994220 176.088554 78.000484 171.302161 -1.519503 -18.974199 2.141939 0.004200 -0.046943 -0.019165
-11.570912 51.636119 33.847220 -177.631022 -33.791346 -10.538216 -0.778771 13.122573 3.430555 -0.543172 7.521834 1.994380 -0.638908 9.404852 2.487213 -0.568785 7.535243 2.001040 4.785909 20.386600 0.761238 4.936344 -3.944512 -0.249361 0.905176 1.597525 -1.642914 -14.143112 -8.772338 7.271820 39.974550 -74.249557 -26.418154 11.560621 -2.845326 -8.967332 -9.675363 3.494296 -3.543256 7.434580 -1.609461 -1.756138 -89.710063 -70.482121 97.207424 11.100854 -10.813676 -9.378287 -21.768942 -36.067127 15.208194 9.839599 73.287468 4.992488 -1.817025 -4.895921 0.655953 -0.054675 2.010915 -0.744537 -14.440499 -45.588498 11.990414 176.212337 77.911184 171.423370 -1.488885 -19.023550 2.131641 0.003779 -0.034072 -0.020590
-11.566901 51.575698 33.830520 -177.650461 -33.786874 -10.522209 -0.760288 13.116294 3.430833 -0.541770 7.518967 1.991827 -0.623125 9.398776 2.486465 -0.544961 7.519424 1.993301 4.766389 20.387351 0.769123 4.945740 -3.982353 -0.271448 0.872757 1.609457 -1.629475 -14.148978 -8.788674 7.253398 40.024720 -74.263044 -26.468656 11.591330 -2.785740 -8.906296 -9.690975 3.502013 -3.535217 7.486934 -1.631341 -1.747782 -89.723375 -70.521608 97.203023 11.055192 -10.751414 -9.548872 -21.368695 -36.121887 14.903098 10.322732 73.678087 5.428028 -1.868852 -5.431295 0.903668 -0.037825 1.670880 -0.502691 -14.443402 -45.641478 11.986551 176.325498 77.832924 171.549537 -1.459298 -19.067137 2.115070 0.007393 -0.023311 -0.021681
-11.563282 51.520451 33.818293 -177.668323 -33.783082 -10.505686 -0.746352 13.110123 3.425910 -0.536820 7.517312 1.992373 -0.602725 9.394982 2.487547 -0.564751 7.520444 1.994217 4.787989 20.370563 0.757572 4.927167 -3.984965 -0.260637 0.878940 1.603924 -1.630464 -14.156176 -8.801960 7.234281 40.076970 -74.247613 -26.514285 11.638217 -2.759507 -8.912267 -9.662128 3.494947 -3.535909 7.470749 -1.628840 -1.741757 -89.724552 -70.535980 97.223428 11.019228 -10.700668 -9.691244 -20.952056 -36.178813 14.571739 10.830979 74.076380 5.897454 -1.936572 -5.865695 0.997442 -0.023791 1.310870 -0.179441 -14.467012 -45.686805 11.994289 176.305233 77.763325 171.531316 -1.459527 -19.099071 2.092118 0.011680 -0.015522 -0.018534
-11.560085 51.470966 33.809767 -177.687667 -33.784169 -10.487965 -0.727013 13.111549 3.426878 -0.527772 7.513244 1.991058 -0.602631 9.393099 2.485278 -0.544627 7.513362 1.991953 4.782304 20.369624 0.755776 4.903887 -3.985564 -0.244801 0.890495 1.591704 -1.630270 -14.199855 -8.789801 7.226826 40.215198 -74.221544 -26.636880 11.681187 -2.759957 -8.966539 -9.677462 3.499574 -3.529916 7.469589 -1.632557 -1.740121 -89.716845 -70.540820 97.217146 10.975510 -10.651962 -9.816611 -20.527313 -36.224840 14.217679 11.330542 74.479445 6.356403 -2.013395 -6.235872 0.964104 -0.014957 0.963236 0.189144 -14.477644 -45.721497 11.997481 176.262118 77.706418 171.489297 -1.459776 -19.126642 2.073738 0.010802 -0.000900 -0.010297
-11.558065 51.427399 33.804224 -177.710340 -33.792309 -10.464677 -0.699875 13.117452 3.426487 -0.517383 7.511212 1.990116 -0.606848 9.391379 2.482256 -0.517314 7.511130 1.990215 4.755346 20.368090 0.759584 4.905123 -3.999340 -0.256312 0.853255 1.590561 -1.622913 -14.203300 -8.795462 7.214569 40.336919 -74.194201 -26.738278 11.710607 -2.786666 -9.047825 -9.700603 3.499535 -3.521240 7.512416 -1.644818 -1.735200 -89.715479 -70.549757 97.180837 10.922821 -10.599121 -9.961954 -20.096034 -36.253336 13.839853 11.787890 74.887426 6.760202 -2.098919 -6.576065 0.852704 -0.011596 0.650916 0.560772 -14.471601 -45.744120 11.990804 176.211715 77.662910 171.438752 -1.462238 -19.148287 2.061646 0.009164 0.008503 -0.008655
-11.556311 51.389446 33.801768 -177.722947 -33.801292 -10.449768 -0.689851 13.125554 3.430023 -0.490301 7.513947 2.001933 -0.579238 9.395863 2.478666 -0.533264 7.503453 1.984882 4.727867 20.362090 0.758653 4.903903 -4.005074 -0.268412 0.831352 1.582163 -1.625028 -14.216203 -8.798462 7.200102 40.386248 -74.173126 -26.767802 11.716955 -2.831114 -9.141502 -9.678277 3.500984 -3.513225 7.458738 -1.649373 -1.735563 -89.692563 -70.519178 97.257793 10.900818 -10.522495 -10.201653 -19.682871 -36.258288 13.447819 12.186651 75.296803 7.086752 -2.192066 -6.914135 0.710399 -0.013216 0.387634 0.898307 -14.463684 -45.760855 11.982395 176.171165 77.630515 171.402165 -1.464758 -19.162928 2.052327 0.006263 0.016394 -0.006955
